<svg width="360" height="800" viewBox="0 0 360 800" fill="none" xmlns="http://www.w3.org/2000/svg">
<g clip-path="url(#clip0_824_4220)">
<rect width="360" height="800" fill="url(#paint0_linear_824_4220)"/>
<g opacity="0.8">
<path d="M1632.82 795.404H-921.936V385.224C-864.252 307.736 -796.665 297.835 -719.178 355.52C-627.847 311.69 -560.26 335.441 -516.42 426.772C-457.563 350.456 -389.977 341.726 -313.661 400.583C-290.547 342.594 -249.995 325.156 -192.006 348.271C-145.552 313.622 -105 319.524 -70.3511 365.979C14.5709 315.739 82.157 333.081 132.407 418.003C214.66 365.083 282.246 379.749 335.166 462.001C350.418 396.161 390.969 370.867 456.821 386.119C480.127 328.322 520.678 311.076 578.476 334.382C652.573 273.318 720.159 279.834 781.234 353.931C837.421 329.026 877.972 344.666 902.889 400.853C976.186 338.978 1043.77 344.689 1105.65 417.986C1163.24 394.477 1203.79 411.526 1227.3 469.132C1313.1 419.76 1380.69 437.975 1430.06 523.775C1443.76 402.3 1511.34 348.412 1632.82 362.109V795.404Z" fill="#8B85BD"/>
<path d="M1551.72 795.404H-921.936V501.675C-831.776 456.662 -764.19 479.23 -719.178 569.379C-620.615 532.77 -553.029 563.741 -516.42 662.293C-442.987 600.564 -375.401 606.416 -313.661 679.848C-305.923 552.415 -238.336 492.567 -110.903 500.306C-11.5287 518.577 29.023 577.399 10.7522 676.773C1.75198 586.67 42.3037 537.118 132.407 528.118C186.409 446.947 253.995 433.362 335.166 487.363C453.374 470.399 520.96 521.027 537.924 639.246C561.714 581.922 602.266 565.155 659.579 588.945C683.234 531.497 723.786 514.595 781.234 538.239C814.047 489.948 854.599 482.204 902.889 515.006C933.99 464.992 974.542 455.536 1024.54 486.637C1124.29 451.21 1191.88 483.364 1227.3 583.099C1282.27 556.966 1322.82 571.39 1348.96 626.371C1386.73 528.968 1454.31 499.151 1551.72 536.921V795.404Z" fill="#5950A1"/>
<path d="M1552 800.261H-922V714.571C-878.592 675.858 -838.035 678.791 -800.328 723.368C-720.61 721.933 -680.053 762.144 -678.656 844C-659.842 724.519 -592.246 674.436 -475.869 693.752C-422.761 609.479 -355.166 594.604 -273.082 649.128C-208.922 631.721 -168.365 655.953 -151.41 721.824C-96.3081 639.586 -28.7125 626.753 51.3771 683.325C151.464 647.284 219.059 680.641 254.164 783.398C308.105 699.98 375.701 685.968 456.951 741.359C502.15 648.955 569.745 625.955 659.738 672.36C742.97 619.015 810.566 635.075 862.525 720.54C911.013 687.043 951.571 695.186 984.197 744.968C1037.37 660.764 1104.97 645.953 1186.98 700.535C1234.22 665.755 1274.78 672.62 1308.66 721.13C1354.89 685.32 1395.45 691.149 1430.33 738.618C1443.15 668.514 1483.71 640.043 1552 653.206V800.261Z" fill="white"/>
</g>
</g>
<defs>
<linearGradient id="paint0_linear_824_4220" x1="180" y1="0" x2="180" y2="518.5" gradientUnits="userSpaceOnUse">
<stop stop-color="#5950A1"/>
<stop offset="1" stop-color="#ECD6F1"/>
</linearGradient>
<clipPath id="clip0_824_4220">
<rect width="360" height="800" fill="white"/>
</clipPath>
</defs>
</svg>
